<?xml version="1.0" encoding="utf-8"?>
<!-- Generator: Adobe Illustrator 16.0.0, SVG Export Plug-In . SVG Version: 6.00 Build 0)  -->
<!DOCTYPE svg PUBLIC "-//W3C//DTD SVG 1.1//EN" "http://www.w3.org/Graphics/SVG/1.1/DTD/svg11.dtd">
<svg version="1.1" id="Layer_3" xmlns="http://www.w3.org/2000/svg" xmlns:xlink="http://www.w3.org/1999/xlink" x="0px" y="0px"
	 width="100px" height="100px" viewBox="0 0 100 100" enable-background="new 0 0 100 100" xml:space="preserve">
<g>
	<path d="M72.306,21.351H27.116c-4.534,0-5.796,1.554-5.796,6.507v27.345c9.628,5.044,17.896,4.149,22.412,4.008
		c1.896-0.095,3.115,0.324,3.854,1.103c0.129,0.109,0.264,0.227,0.405,0.359c0.85,0.789,1.679,1.474,2.49,2.051
		c0.165-2.234,1.415-3.682,4.785-3.513c4.584,0.144,13.035,1.068,22.851-4.238V27.858C78.118,23.197,76.602,21.351,72.306,21.351z
		 M39.783,55.865c-4.844,0-8.773-3.674-8.773-8.208s3.93-8.208,8.773-8.208c4.846,0,8.775,3.674,8.775,8.208
		S44.629,55.865,39.783,55.865z M60.204,55.865c-4.845,0-8.776-3.674-8.776-8.208s3.932-8.208,8.776-8.208s8.775,3.674,8.775,8.208
		S65.049,55.865,60.204,55.865z"/>
	<path d="M50,1.125C23.008,1.125,1.125,23.007,1.125,50S23.008,98.875,50,98.875S98.875,76.993,98.875,50S76.992,1.125,50,1.125z
		 M69.618,65.023c8.025,27.276-19.543,31.609-19.121,17.624c0,0.252-0.015-7.496-0.026-13.27c-0.59-0.145-1.217-0.311-1.94-0.481
		c-0.012,5.813-0.027,14.011-0.027,13.751c0.422,13.985-27.127,9.652-19.121-17.624c-7.568-3.106-12.504-7.056-15.101-10.237
		c-1.333-1.974,0.093-4.041,2.269-2.523c0.293,0.209,0.586,0.409,0.877,0.606V24.66c0-3.913,2.942-7.074,6.563-7.074h51.059
		c3.62,0,6.563,3.162,6.563,7.074v28.185c0.279-0.19,0.56-0.38,0.84-0.581c2.176-1.518,3.602,0.549,2.268,2.523
		C82.124,57.967,77.187,61.917,69.618,65.023z"/>
</g>
</svg>
